<svg width="929" height="249" viewBox="0 0 929 249" fill="none" xmlns="http://www.w3.org/2000/svg">
<g filter="url(#filter0_d_2_3)">
<path d="M69.3857 30.3184V137.712H33.5879V30.3184H4V0H98.9736V30.3184H69.3857ZM185.479 113.786L88.6787 137.712L141.645 0H180.73L232.601 137.712L185.479 113.786ZM161.188 42.5557L146.028 86.3896H175.799L161.188 42.5557ZM372.367 137.712L362.322 58.4453L314.652 137.712L282.69 58.4453L271.184 137.712H235.568L258.946 0H294.196L322.141 73.6045L351.729 0H387.344L408.165 137.712H372.367ZM650.467 113.786L554.795 137.433L554.899 137.712L554.496 137.507L553.667 137.712L553.869 137.188L507.777 113.786L410.978 137.712L463.943 0H503.029L554.29 136.093L606.633 0H645.718L697.588 137.712L650.467 113.786ZM483.486 42.5557L468.327 86.3896H498.098L483.486 42.5557ZM626.176 42.5557L611.016 86.3896H640.787L626.176 42.5557ZM759.55 0C819.955 0.000126057 852.947 74.89 808.863 117.804C781.987 143.96 743.117 137.712 708.775 137.712V0H759.55ZM881.911 30.3184V53.3311H922.275V83.6504H881.911V107.394H924.467V137.712H846.113V0H924.467V30.3184H881.911Z" fill="#EAEEE8"/>
</g>
<path d="M414.222 189.761H418.892V226.286H414.222V189.761ZM396.169 210.91L427.604 198.682L429.493 203.038L398.111 215.266L396.169 210.91ZM402.729 195.114H407.61V229.435C407.61 230.45 407.715 231.219 407.924 231.744C408.134 232.269 408.537 232.636 409.131 232.846C409.761 233.021 410.671 233.108 411.86 233.108C412.21 233.108 412.787 233.108 413.592 233.108C414.397 233.108 415.306 233.108 416.321 233.108C417.336 233.108 418.35 233.108 419.365 233.108C420.414 233.108 421.359 233.108 422.199 233.108C423.038 233.108 423.668 233.108 424.088 233.108C425.172 233.108 425.977 232.916 426.502 232.531C427.062 232.111 427.464 231.359 427.709 230.275C427.954 229.19 428.146 227.633 428.286 225.604C428.846 226.024 429.563 226.426 430.438 226.811C431.312 227.161 432.1 227.423 432.799 227.598C432.589 230.082 432.205 232.059 431.645 233.528C431.12 234.998 430.28 236.03 429.126 236.625C428.006 237.254 426.432 237.569 424.403 237.569C424.088 237.569 423.493 237.569 422.618 237.569C421.744 237.569 420.747 237.569 419.627 237.569C418.508 237.569 417.388 237.569 416.269 237.569C415.149 237.569 414.152 237.569 413.277 237.569C412.438 237.569 411.86 237.569 411.545 237.569C409.271 237.569 407.487 237.342 406.193 236.887C404.933 236.432 404.041 235.592 403.516 234.368C402.991 233.178 402.729 231.517 402.729 229.382V195.114ZM425.925 199.68H425.452L426.449 198.892L427.342 198.158L430.753 199.522L430.595 200.309C430.595 203.423 430.56 206.257 430.49 208.811C430.455 211.365 430.403 213.516 430.333 215.266C430.263 216.98 430.158 218.222 430.018 218.992C429.843 220.251 429.493 221.213 428.968 221.878C428.444 222.508 427.761 222.963 426.922 223.242C426.187 223.522 425.277 223.697 424.193 223.767C423.143 223.802 422.181 223.802 421.307 223.767C421.272 223.068 421.149 222.28 420.939 221.406C420.729 220.496 420.484 219.761 420.204 219.202C420.869 219.237 421.569 219.272 422.304 219.307C423.038 219.307 423.563 219.307 423.878 219.307C424.263 219.307 424.578 219.219 424.823 219.044C425.102 218.869 425.312 218.484 425.452 217.89C425.592 217.365 425.68 216.35 425.715 214.846C425.785 213.341 425.837 211.312 425.872 208.758C425.907 206.204 425.925 203.178 425.925 199.68ZM395.435 189.814L400 191.23C398.881 194.169 397.551 197.108 396.012 200.047C394.472 202.951 392.811 205.697 391.026 208.286C389.277 210.875 387.458 213.167 385.569 215.161C385.394 214.776 385.149 214.269 384.834 213.639C384.519 213.009 384.187 212.379 383.837 211.75C383.487 211.085 383.155 210.578 382.84 210.228C384.519 208.548 386.128 206.624 387.668 204.455C389.242 202.286 390.694 199.942 392.023 197.423C393.353 194.904 394.49 192.368 395.435 189.814ZM389.977 203.72L394.805 198.892L394.857 198.945V238.251H389.977V203.72ZM479.243 212.484H484.018C484.018 212.484 484.001 212.624 483.966 212.904C483.966 213.149 483.949 213.429 483.914 213.744C483.914 214.059 483.896 214.339 483.861 214.583C483.511 219.237 483.126 223.033 482.707 225.971C482.287 228.91 481.832 231.184 481.342 232.794C480.887 234.368 480.345 235.487 479.715 236.152C479.155 236.747 478.578 237.184 477.983 237.464C477.389 237.744 476.671 237.919 475.832 237.989C475.132 238.059 474.222 238.094 473.103 238.094C472.018 238.094 470.829 238.059 469.534 237.989C469.499 237.324 469.359 236.555 469.115 235.68C468.905 234.84 468.607 234.106 468.222 233.476C469.412 233.616 470.514 233.703 471.529 233.738C472.543 233.738 473.295 233.738 473.785 233.738C474.205 233.773 474.555 233.756 474.835 233.686C475.15 233.581 475.429 233.388 475.674 233.108C476.164 232.654 476.619 231.709 477.039 230.275C477.459 228.84 477.843 226.759 478.193 224.03C478.578 221.266 478.928 217.697 479.243 213.324V212.484ZM456.31 192.49H476.986V197.003H456.31V192.49ZM458.829 199.732L463.447 200.047C463.307 201.866 463.132 203.808 462.922 205.872C462.712 207.901 462.502 209.86 462.292 211.75C462.082 213.639 461.872 215.301 461.663 216.735H456.992C457.237 215.266 457.464 213.551 457.674 211.592C457.919 209.633 458.147 207.621 458.356 205.557C458.566 203.458 458.724 201.516 458.829 199.732ZM458.304 212.484H480.607V216.735H458.304V212.484ZM454.84 222.875H475.464V227.283H454.84V222.875ZM475.097 192.49H475.569L476.357 192.28L479.873 192.647C479.768 194.292 479.61 196.076 479.4 198C479.225 199.924 479.033 201.901 478.823 203.93C478.613 205.959 478.386 207.971 478.141 209.965C477.896 211.96 477.651 213.849 477.406 215.633L472.736 215.266C472.98 213.446 473.225 211.522 473.47 209.493C473.715 207.464 473.943 205.435 474.152 203.406C474.362 201.376 474.537 199.47 474.677 197.685C474.852 195.866 474.992 194.327 475.097 193.067V192.49ZM436.945 200.257H451.062V204.875H436.945V200.257ZM437.365 219.464L440.146 216.21C441.441 217.225 442.805 218.344 444.24 219.569C445.674 220.793 447.056 222.035 448.385 223.295C449.75 224.554 450.974 225.796 452.059 227.021C453.179 228.245 454.106 229.365 454.84 230.38L451.744 234.158C450.834 232.759 449.575 231.184 447.966 229.435C446.391 227.686 444.659 225.936 442.77 224.187C440.916 222.438 439.114 220.863 437.365 219.464ZM450.38 200.257H451.219L452.059 200.152L454.893 200.519C454.543 207.411 453.756 213.324 452.531 218.257C451.307 223.155 449.592 227.231 447.388 230.485C445.219 233.703 442.525 236.31 439.307 238.304C438.992 237.709 438.554 237.009 437.995 236.205C437.435 235.435 436.893 234.805 436.368 234.315C439.237 232.811 441.633 230.589 443.557 227.651C445.517 224.677 447.074 220.986 448.228 216.578C449.383 212.134 450.1 206.992 450.38 201.149V200.257ZM437.365 219.464C437.96 217.575 438.537 215.406 439.097 212.957C439.692 210.508 440.251 207.954 440.776 205.295C441.301 202.601 441.756 199.907 442.141 197.213C442.56 194.519 442.875 191.965 443.085 189.551L447.808 189.866C447.528 192.42 447.161 195.096 446.706 197.895C446.251 200.659 445.744 203.441 445.184 206.239C444.659 209.003 444.1 211.662 443.505 214.216C442.91 216.77 442.35 219.062 441.826 221.091L437.365 219.464ZM504.8 191.493H513.931V195.796H508.736V238.251H504.8V191.493ZM513.039 191.493H513.616L514.194 191.335L517.133 192.805C516.643 195.009 516.1 197.423 515.506 200.047C514.911 202.636 514.281 205.295 513.616 208.024C514.911 210.508 515.856 212.677 516.45 214.531C517.08 216.35 517.395 218.065 517.395 219.674C517.395 221.213 517.237 222.613 516.923 223.872C516.608 225.132 516.1 226.041 515.401 226.601C515.086 226.916 514.718 227.161 514.299 227.336C513.914 227.476 513.511 227.563 513.092 227.598C512.707 227.668 512.269 227.721 511.78 227.756C511.29 227.756 510.818 227.738 510.363 227.703C510.328 227.143 510.223 226.496 510.048 225.761C509.873 225.027 509.646 224.397 509.366 223.872C509.716 223.907 510.083 223.925 510.468 223.925C510.853 223.925 511.167 223.925 511.412 223.925C511.937 223.925 512.339 223.802 512.619 223.557C512.934 223.277 513.144 222.753 513.249 221.983C513.389 221.178 513.459 220.339 513.459 219.464C513.459 217.995 513.179 216.438 512.619 214.793C512.095 213.114 511.185 211.032 509.89 208.548C510.59 205.435 511.202 202.443 511.727 199.575C512.252 196.706 512.689 194.152 513.039 191.913V191.493ZM492.73 193.645H502.176V224.817H492.73V219.989H498.345V198.473H492.73V193.645ZM490.631 193.645H494.462V229.802H490.631V193.645ZM517.71 191.965H537.547V196.688H517.71V191.965ZM518.444 201.831H526.264V206.239H521.698V228.123H518.444V201.831ZM531.249 193.435H535.238V232.269C535.238 233.458 535.098 234.438 534.818 235.208C534.538 235.977 533.996 236.572 533.191 236.992C532.421 237.342 531.407 237.569 530.147 237.674C528.923 237.814 527.418 237.884 525.634 237.884C525.599 237.464 525.494 236.957 525.319 236.362C525.179 235.802 524.987 235.225 524.742 234.63C524.532 234.036 524.305 233.546 524.06 233.161C525.494 233.196 526.771 233.213 527.891 233.213C529.01 233.213 529.78 233.213 530.2 233.213C530.899 233.213 531.249 232.864 531.249 232.164V193.435ZM525.109 201.831H528.52V224.659H520.071V220.199H525.109V201.831ZM546.573 198.053H562.631V232.846H546.573V228.385H558.066V202.461H546.573V198.053ZM543.687 198.053H548.252V236.887H543.687V198.053ZM546.363 212.432H560.375V216.735H546.363V212.432ZM551.454 189.499L556.859 190.391C556.299 192.07 555.704 193.767 555.075 195.481C554.445 197.196 553.868 198.647 553.343 199.837L549.407 198.892C549.652 198.018 549.914 197.038 550.194 195.954C550.474 194.834 550.719 193.714 550.929 192.595C551.174 191.44 551.349 190.408 551.454 189.499ZM569.874 197.79H585.617V202.356H569.874V197.79ZM583.885 197.79H588.503C588.503 197.79 588.503 197.948 588.503 198.263C588.503 198.543 588.503 198.875 588.503 199.26C588.503 199.645 588.503 199.942 588.503 200.152C588.329 206.134 588.136 211.207 587.926 215.371C587.716 219.499 587.471 222.893 587.191 225.552C586.947 228.21 586.632 230.275 586.247 231.744C585.897 233.213 585.46 234.28 584.935 234.945C584.27 235.82 583.588 236.415 582.888 236.729C582.189 237.079 581.331 237.324 580.317 237.464C579.407 237.569 578.218 237.604 576.748 237.569C575.314 237.569 573.844 237.534 572.34 237.464C572.305 236.764 572.13 235.942 571.815 234.998C571.535 234.088 571.151 233.301 570.661 232.636C572.375 232.776 573.949 232.864 575.384 232.899C576.818 232.934 577.868 232.951 578.533 232.951C579.057 232.951 579.477 232.899 579.792 232.794C580.142 232.689 580.474 232.461 580.789 232.111C581.209 231.622 581.576 230.677 581.891 229.278C582.206 227.843 582.486 225.831 582.731 223.242C582.976 220.619 583.186 217.295 583.361 213.272C583.57 209.248 583.745 204.42 583.885 198.787V197.79ZM570.556 189.499L575.331 190.601C574.667 193.19 573.862 195.744 572.917 198.263C572.008 200.782 571.011 203.161 569.926 205.4C568.841 207.604 567.687 209.546 566.462 211.225C566.183 210.945 565.78 210.63 565.255 210.28C564.766 209.895 564.258 209.528 563.734 209.178C563.244 208.828 562.789 208.548 562.369 208.339C563.559 206.834 564.661 205.067 565.675 203.038C566.725 201.009 567.652 198.84 568.457 196.531C569.296 194.187 569.996 191.843 570.556 189.499ZM568.037 212.117L571.92 209.913C572.865 211.102 573.844 212.432 574.859 213.901C575.909 215.336 576.871 216.735 577.745 218.1C578.655 219.464 579.39 220.671 579.949 221.721L575.751 224.345C575.261 223.26 574.579 222.018 573.704 220.619C572.83 219.219 571.903 217.767 570.923 216.263C569.944 214.758 568.981 213.376 568.037 212.117Z" fill="#EAEEE8"/>
<defs>
<filter id="filter0_d_2_3" x="0" y="0" width="928.467" height="146.365" filterUnits="userSpaceOnUse" color-interpolation-filters="sRGB">
<feFlood flood-opacity="0" result="BackgroundImageFix"/>
<feColorMatrix in="SourceAlpha" type="matrix" values="0 0 0 0 0 0 0 0 0 0 0 0 0 0 0 0 0 0 127 0" result="hardAlpha"/>
<feOffset dy="4"/>
<feGaussianBlur stdDeviation="2"/>
<feComposite in2="hardAlpha" operator="out"/>
<feColorMatrix type="matrix" values="0 0 0 0 0 0 0 0 0 0 0 0 0 0 0 0 0 0 0.25 0"/>
<feBlend mode="normal" in2="BackgroundImageFix" result="effect1_dropShadow_2_3"/>
<feBlend mode="normal" in="SourceGraphic" in2="effect1_dropShadow_2_3" result="shape"/>
</filter>
</defs>
</svg>
